{"title":"Tunnel Vision 2013 DVDRip XViD juggs","uid":8631189,"size":738671015,"categoryP":"video","categoryS":"movies","magnet":"?xt=urn:btih:5e6f710a77f7e585f877d7090068d2e36efced1d&amp;dn=Tunnel+Vision+2013+DVDRip+XViD+juggs&amp;tr=udp%3A%2F%2Ftracker.openbittorrent.com%3A80&amp;tr=udp%3A%2F%2Fopen.demonii.com%3A1337&amp;tr=udp%3A%2F%2Ftracker.coppersurfer.tk%3A6969&amp;tr=udp%3A%2F%2Fexodus.desync.com%3A6969","seeders":1,"leechers":1,"uploader":"juggs99","files":3,"time":1372633700,"description":"Source: 0MNiDVD(Thanks) &lt;a href=&quot;\nhttp://www.imdb.com/title/tt2073131/&quot; rel=&quot;nofollow&quot; target=&quot;_NEW&quot;&gt;\nhttp://www.imdb.com/title/tt2073131/&lt;/a&gt;\n\n\n\nFormat: AVI\nFormat/Info: Audio Video Interleave\nFile size: 697 MiB\nDuration: 1h 21mn\nOverall bit rate: 1 192 Kbps\nWriting library: VirtualDub build 32842/release\n\nVideo\nID: 0\nFormat: MPEG-4 Visual\nFormat profile: Advanced Simple@L5\nFormat settings, BVOP: 2\nFormat settings, QPel: No\nFormat settings, GMC: No warppoints\nFormat settings, Matrix: Default (H.263)\nMuxing mode: Packed bitstream\nCodec ID: XVID\nCodec ID/Hint: XviD\nDuration: 1h 21mn\nBit rate: 1 054 Kbps\nWidth: 640 pixels\nHeight: 352 pixels\nDisplay aspect ratio: 16:9\nFrame rate: 23.976 fps\nColor space: YUV\nChroma subsampling: 4:2:0\nBit depth: 8 bits\nScan type: Progressive\nCompression mode: Lossy\nBits/(Pixel*Frame): 0.195\nStream size: 617 MiB (88%)\nWriting library: XviD 1.2.1 (UTC 2008-12-04)\n\nAudio\nID: 1\nFormat: MPEG Audio\nFormat version: Version 1\nFormat profile: Layer 3\nCodec ID: 55\nCodec ID/Hint: MP3\nDuration: 1h 21mn\nBit rate mode: Constant\nBit rate: 128 Kbps\nChannel(s): 2 channels\nSampling rate: 44.1 KHz\nCompression mode: Lossy\nStream size: 74.8 MiB (11%)\nAlignment: Split accross interleaves\nInterleave, duration: 42 ms (1.00 video frame)\nInterleave, preload duration: 500 ms\nWriting library: LAME3.99r\n\n\nWhen a jury fails to convict the serial killer who savagely murdered his family, one man must rise above his desire for revenge and descend into the deranged world of a sadistic predator to uncover the truth and finally get justice. What begins as a classic revenge tale takes a dramatic turn into a haunting land of horror and murder \n &lt;a href=&quot;\nhttp://img51.imageshack.us/img51/5277/y1m.png&quot; rel=&quot;nofollow&quot; target=&quot;_NEW&quot;&gt;\nhttp://img51.imageshack.us/img51/5277/y1m.png&lt;/a&gt; &lt;a href=&quot;\nhttp://img62.imageshack.us/img62/5125/tz0i.png&quot; rel=&quot;nofollow&quot; target=&quot;_NEW&quot;&gt;\nhttp://img62.imageshack.us/img62/5125/tz0i.png&lt;/a&gt; &lt;a href=&quot;\nhttp://img819.imageshack.us/img819/3645/tl8z.png&quot; rel=&quot;nofollow&quot; target=&quot;_NEW&quot;&gt;\nhttp://img819.imageshack.us/img819/3645/tl8z.png&lt;/a&gt;","torrent":{"xt":"urn:btih:5e6f710a77f7e585f877d7090068d2e36efced1d","amp;dn":"Tunnel+Vision+2013+DVDRip+XViD+juggs","amp;tr":["udp%3A%2F%2Ftracker.openbittorrent.com%3A80","udp%3A%2F%2Fopen.demonii.com%3A1337","udp%3A%2F%2Ftracker.coppersurfer.tk%3A6969","udp%3A%2F%2Fexodus.desync.com%3A6969"],"infoHash":"5e6f710a77f7e585f877d7090068d2e36efced1d","infoHashBuffer":{"type":"Buffer","data":[94,111,113,10,119,247,229,133,248,119,215,9,0,104,210,227,110,252,237,29]},"announce":[],"urlList":[]}}